<svg width="203" height="138" viewBox="0 0 203 138" fill="none" xmlns="http://www.w3.org/2000/svg">
<path d="M51.5 131L4 7L162.5 0L202 103.5L71 110L51.5 131Z" fill="#F5F6FA"/>
<path d="M51.5 131L4 7L162.5 0L202 103.5L71 110L51.5 131Z" fill="#C8C9EA"/>
<path d="M0 14.5L4 8L51.5 130.5L71.5 109.5L202.5 104L199.5 111.5L68 118L48.5 138L0 14.5Z" fill="#7E7FA4"/>
<path d="M63.5 79L61 72L158 67L160.5 74L63.5 79Z" fill="#F5F6FA"/>
<path d="M55.5 57.5L52 49.8947L149 46L151.5 53L55.5 57.5Z" fill="#F5F6FA"/>
<path d="M46.5 35.5L44 28L95 26L98 33L46.5 35.5Z" fill="#F5F6FA"/>
</svg>
