<svg width="433" height="237" viewBox="0 0 433 237" fill="none" xmlns="http://www.w3.org/2000/svg">
<rect y="6" width="432" height="231" fill="#F5F6FA"/>
<path d="M432.5 236.5V105C406.25 119.62 378.44 131.247 349.595 139.66L345 141L329.983 145.374C267.744 163.505 200.555 148.452 152 105.5L140.253 98.3129C98.541 72.7915 49.6889 61.4557 1 66L3 236.5H432.5Z" fill="#2321AA" fill-opacity="0.08"/>
<path d="M432 236.5V171.5H371.5L350.664 169.957C337.708 168.997 325.114 165.244 313.747 158.956L307.5 155.5L286 141.5L180.5 62L174.378 57.454C124.535 20.445 62.8384 3.02472 1 8.5V236.5H432Z" fill="#2321AA" fill-opacity="0.08"/>
<path d="M433 237V122L419.738 116.257C386.526 101.873 350.964 93.6822 314.807 92.0871C283.467 90.7044 252.106 94.296 221.89 102.728L181.5 114C122.272 123.265 61.8153 125.988 2 122V237H433Z" fill="#2321AA" fill-opacity="0.08"/>
</svg>
